<svg xmlns="http://www.w3.org/2000/svg" viewBox="0 0 400 500" width="400" height="500">
  <rect width="400" height="500" fill="#111111"/>
  <text x="200" y="200" text-anchor="middle" font-family="Arial Black" font-size="120" fill="#F5A900" opacity="0.08" font-weight="900">SR</text>
  <g transform="translate(80,100)">
    <path d="M120 40 C40 40, 20 120, 20 160 L220 160 C220 120, 200 40, 120 40 Z" fill="none" stroke="#F5A900" stroke-width="3"/>
    <rect x="20" y="160" width="200" height="15" rx="4" fill="none" stroke="#F5A900" stroke-width="3"/>
    <line x1="50" y1="175" x2="50" y2="220" stroke="#929292" stroke-width="2.5"/>
    <line x1="80" y1="175" x2="80" y2="225" stroke="#929292" stroke-width="2.5"/>
    <line x1="110" y1="175" x2="110" y2="228" stroke="#929292" stroke-width="2.5"/>
    <line x1="140" y1="175" x2="140" y2="228" stroke="#929292" stroke-width="2.5"/>
    <line x1="170" y1="175" x2="170" y2="225" stroke="#929292" stroke-width="2.5"/>
    <line x1="200" y1="175" x2="200" y2="220" stroke="#929292" stroke-width="2.5"/>
    <rect x="50" y="205" width="150" height="2" fill="#929292" opacity="0.5"/>
    <rect x="50" y="215" width="150" height="2" fill="#929292" opacity="0.3"/>
  </g>
  <text x="200" y="400" text-anchor="middle" font-family="Arial" font-size="16" fill="#929292" letter-spacing="4">CRICKET HELMET</text>
  <rect x="155" y="415" width="90" height="2" fill="#F5A900" opacity="0.5"/>
</svg>
